<?xml version="1.0" encoding="utf-8"?>
<!-- Generator: Adobe Illustrator 19.0.0, SVG Export Plug-In . SVG Version: 6.00 Build 0)  -->
<svg version="1.1" id="Layer_1" xmlns="http://www.w3.org/2000/svg" xmlns:xlink="http://www.w3.org/1999/xlink" x="0px" y="0px"
	 viewBox="0 0 374.4 441.9" enable-background="new 0 0 374.4 441.9" xml:space="preserve">
<g>
	<radialGradient id="SVGID_1_" cx="184.6544" cy="228.3159" r="179.5863" gradientUnits="userSpaceOnUse">
		<stop  offset="0" style="stop-color:#7D7D7D"/>
		<stop  offset="0.4409" style="stop-color:#3E3E3E"/>
		<stop  offset="0.8006" style="stop-color:#111111"/>
		<stop  offset="0.9816" style="stop-color:#000000"/>
	</radialGradient>
	<path fill="url(#SVGID_1_)" d="M364.2,228.3c0,99.2-80.4,179.6-179.6,179.6c-99.2,0-179.6-80.4-179.6-179.6
		c0-99.2,80.4-179.6,179.6-179.6C283.8,48.7,364.2,129.1,364.2,228.3z"/>
	<path fill="#666666" d="M147.5,126.8c0,0,37.9-26.8,93.4,3.7l71.4-92.8c0,0,100.4,223.7-123.1,363c0,0-218.5-86.6-126.5-365.3
		L147.5,126.8z"/>
	<path fill="#E2E2E2" d="M260.4,146.9c-23.1-2.7-50.3,5.4-61,26.3C185.3,194,187,277.4,233,331.2l-55.6,0.1c0,0.3,0,0.6,0.1,1
		l-36.8,0c46-53.8,47.7-137.2,33.7-158.1c-10.7-20.9-37.9-28.9-61-26.3c-48.4,5.5-60.5,65.7-46.5,100.1
		c13.5,33.3,80.8,148.5,110.9,141.2c3.8-0.9,6.8-4.1,9.4-8.9c2.4,4.3,5.3,7.1,8.8,7.9c30.1,7.3,103.1-107.6,113-142.2
		C318.9,211.3,308.8,152.4,260.4,146.9z"/>
	<g>
		<path fill="none" d="M79,48.5c-33.4,75.2-38.9,143.9-16.4,204.3c31.5,84.9,109.6,127.5,125.5,135.4
			C378,267.9,328.1,89.8,312.4,46.6l-71.7,89.6l-4.4-2.4c-16.5-9.1-32.8-13.6-48.5-13.6c-18,0-30.7,6.2-36.1,8.8
			c-2.5,1.2-4,1.9-5.8,1.9h0l-1.9-0.3C141.7,129.9,140,129.4,79,48.5z"/>
	</g>
	<path fill="#070A01" d="M141.1,331.5c0,0,39.9-44.5,92.3,1.5l-45.8,33.1L141.1,331.5z"/>
	<g>
		<rect x="183.5" y="356.9" fill="#070A01" width="8" height="34"/>
	</g>
	<line fill="none" x1="183.6" y1="368.7" x2="162.3" y2="377.3"/>
	<g>
		<linearGradient id="SVGID_2_" gradientUnits="userSpaceOnUse" x1="105.4554" y1="421.0049" x2="274.5238" y2="421.0049">
			<stop  offset="0" style="stop-color:#E5E2DF"/>
			<stop  offset="0" style="stop-color:#DED9D6"/>
			<stop  offset="6.299578e-02" style="stop-color:#CFCAC9"/>
			<stop  offset="0.1833" style="stop-color:#A8A4A7"/>
			<stop  offset="0.264" style="stop-color:#8B878D"/>
			<stop  offset="0.5225" style="stop-color:#F3F4F4"/>
			<stop  offset="0.5842" style="stop-color:#E5E5E6"/>
			<stop  offset="0.7027" style="stop-color:#C0BEC0"/>
			<stop  offset="0.8647" style="stop-color:#858085"/>
			<stop  offset="0.8764" style="stop-color:#807B80"/>
			<stop  offset="1" style="stop-color:#D1D3D4"/>
			<stop  offset="1" style="stop-color:#A7A9AC"/>
		</linearGradient>
		<path fill="url(#SVGID_2_)" d="M274.5,400.1c-23.5,11.4-54.3,21.3-84,21.3c-30.3,0-58.9-7-85-18.6v22.8
			c26.8,10.7,55.6,16.3,85.3,16.3c29.1,0,57.4-5.4,83.8-21.4V400.1z"/>
	</g>
	<linearGradient id="SVGID_3_" gradientUnits="userSpaceOnUse" x1="31.9237" y1="213.5152" x2="349.3293" y2="252.4877">
		<stop  offset="0" style="stop-color:#FFFFFF;stop-opacity:0.59"/>
		<stop  offset="1" style="stop-color:#FFFFFF;stop-opacity:0"/>
	</linearGradient>
	<path opacity="0.77" fill="url(#SVGID_3_)" d="M346.9,198.7c0,0-55.9-80.2-156.6-80.2c-99.2,0-156.5,80.2-156.5,80.2
		c-7.9,51,3.4,88.1,3.4,88.1s59.3,57.6,149.4,60.8v0.1c1.2,0,2.5,0,3.7,0c1.2,0,2.5,0,3.7,0v-0.1c90.1-3.1,149.4-60.8,149.4-60.8
		S354.8,249.7,346.9,198.7z"/>
	<circle fill="#F2F2F2" stroke="#000000" stroke-width="3" stroke-miterlimit="10" cx="145.8" cy="201.2" r="21.9"/>
	<circle fill="#F2F2F2" stroke="#000000" stroke-width="3" stroke-miterlimit="10" cx="224.6" cy="201.6" r="21.9"/>
	<linearGradient id="SVGID_4_" gradientUnits="userSpaceOnUse" x1="-514.7848" y1="222.6729" x2="777.6609" y2="222.6729">
		<stop  offset="0" style="stop-color:#2E3192"/>
		<stop  offset="0.1726" style="stop-color:#313393"/>
		<stop  offset="0.2894" style="stop-color:#3A3B97"/>
		<stop  offset="0.3897" style="stop-color:#49499E"/>
		<stop  offset="0.4801" style="stop-color:#5E5CA7"/>
		<stop  offset="0.5031" style="stop-color:#6562AA"/>
		<stop  offset="0.5304" style="stop-color:#5C5AA6"/>
		<stop  offset="0.61" style="stop-color:#48489D"/>
		<stop  offset="0.6999" style="stop-color:#393B97"/>
		<stop  offset="0.8078" style="stop-color:#313393"/>
		<stop  offset="0.9816" style="stop-color:#2E3192"/>
	</linearGradient>
	<path fill="url(#SVGID_4_)" d="M363.8,171.2c0.2,0.1,0.5,0.2,0.7,0.4c0,0-14.6-65.2-54.5-147c-1.1-2.2-40.4,40.6-40.6,40.8
		c-51.5-25.1-112.2-25.3-164-0.2C102.6,62,66.1,22.4,65,24.6c-39.9,81.8-54.5,147-54.5,147c0,0,0,0,0,0
		c-22.7,64.8-8.8,139.8,42.2,192.4c72,74.3,190.5,76.1,264.8,4.1C371.8,315.5,387.4,238,363.8,171.2z M192.3,359.2v0.1
		c-1.4,0-2.7,0-4,0c-1.3,0-2.7,0-4,0v-0.1c-98.8-2.8-164.9-77.4-164.9-77.4s-12.4-33.3-3.8-79.1c0,0,62.8-98.9,171.7-98.9
		c110.5,0,171.8,98.9,171.8,98.9c8.7,45.8-3.8,79.1-3.8,79.1S291.1,356.4,192.3,359.2z"/>
	<g>
		<path fill="#070A01" d="M161.4,203.8c0.9,5.7-3,11.1-8.7,12c-5.7,0.9-11.1-2.9-12-8.7c-0.9-5.7,3-11.1,8.7-12
			C155.1,194.2,160.5,198.1,161.4,203.8z"/>
		<circle fill="#4D4D4D" cx="154.4" cy="202.7" r="4.3"/>
	</g>
	<g>
		<path fill="#070A01" d="M230.3,204.9c0.9,5.7-3,11.1-8.7,12c-5.7,0.9-11.1-2.9-12-8.7c-0.9-5.7,3-11.1,8.7-12
			C224,195.3,229.3,199.2,230.3,204.9z"/>
		<circle fill="#4D4D4D" cx="223.3" cy="203.8" r="4.3"/>
	</g>
	<g>
		<linearGradient id="SVGID_5_" gradientUnits="userSpaceOnUse" x1="187.4818" y1="96.6084" x2="187.4818" y2="369.2832">
			<stop  offset="0" style="stop-color:#E5E2DF"/>
			<stop  offset="0" style="stop-color:#DED9D6"/>
			<stop  offset="6.299578e-02" style="stop-color:#CFCAC9"/>
			<stop  offset="0.1833" style="stop-color:#A8A4A7"/>
			<stop  offset="0.264" style="stop-color:#8B878D"/>
			<stop  offset="0.5225" style="stop-color:#F3F4F4"/>
			<stop  offset="0.5842" style="stop-color:#E5E5E6"/>
			<stop  offset="0.7027" style="stop-color:#C0BEC0"/>
			<stop  offset="0.8647" style="stop-color:#858085"/>
			<stop  offset="0.8764" style="stop-color:#807B80"/>
			<stop  offset="1" style="stop-color:#D1D3D4"/>
			<stop  offset="1" style="stop-color:#A7A9AC"/>
		</linearGradient>
		<path fill="url(#SVGID_5_)" stroke="#4D4D4D" stroke-width="2" stroke-miterlimit="10" d="M198.2,369.3l-6.8,0c-1.3,0-2.6,0-3.9,0
			c-1.3,0-2.6,0-3.9,0l-6.8,0v-0.5c-48.3-3.2-87.9-21.3-112.9-36.3c-28.4-17-44.6-33.4-45.2-34.1l-1.2-1.2l-0.5-1.6
			c-0.5-1.8-12.4-44-3.9-102.5l0.2-1.5l0.9-1.3c0.6-1,16.3-23.8,45.4-46.8c27-21.3,71.1-46.8,127.9-46.8
			c57.7,0,101.8,25.4,128.6,46.8c29,23.1,44.2,45.9,44.9,46.9l0.8,1.3l0.2,1.5c8.6,58.5-3.4,100.7-3.9,102.5l-0.5,1.6l-1.2,1.2
			c-0.7,0.7-16.8,17.1-45.2,34.1c-25.1,15-64.6,33.1-112.9,36.3V369.3z M187.5,355.6l0.1,0c0.1,0,0.2,0,0.4,0l3.2-0.1
			c85.6-3.1,145.1-56.6,154.3-65.4c2-8.1,10.1-45.1,3.3-93.5c-3.5-4.9-17.8-24-41.5-42.8c-25.1-19.9-66.2-43.5-119.8-43.5
			c-52.8,0-93.9,23.7-119.1,43.6c-23.9,18.8-38.5,37.9-42,42.8c-6.8,48.5,1.3,85.3,3.3,93.4c4.2,4,18.9,17.4,41.6,30.9
			c24.8,14.8,64.4,32.7,112.6,34.5l3.2,0.1c0.1,0,0.2,0,0.4,0L187.5,355.6z"/>
	</g>
	
		<linearGradient id="SVGID_6_" gradientUnits="userSpaceOnUse" x1="1061.8379" y1="-1598.5079" x2="1081.8145" y2="-1596.0551" gradientTransform="matrix(-1.5789 1.5789 -0.7071 -0.7071 636.98 -2767.0901)">
		<stop  offset="0" style="stop-color:#000000;stop-opacity:0.43"/>
		<stop  offset="0.1325" style="stop-color:#000000;stop-opacity:0.373"/>
		<stop  offset="1" style="stop-color:#000000;stop-opacity:0"/>
	</linearGradient>
	<path fill="url(#SVGID_6_)" d="M50.2,56.7l15-32.2c0,0,8.2,4.9,39.9,40.4c-0.7,0.6-15.8,3.8-29.6,23.9
		C75.3,89.2,50.2,56.7,50.2,56.7z"/>
	
		<linearGradient id="SVGID_7_" gradientUnits="userSpaceOnUse" x1="1376.8593" y1="-895.2495" x2="1396.8362" y2="-892.7966" gradientTransform="matrix(1.5789 1.5789 0.7071 -0.7071 -1256.9187 -2767.0901)">
		<stop  offset="0" style="stop-color:#000000;stop-opacity:0.43"/>
		<stop  offset="0.1325" style="stop-color:#000000;stop-opacity:0.373"/>
		<stop  offset="1" style="stop-color:#000000;stop-opacity:0"/>
	</linearGradient>
	<path fill="url(#SVGID_7_)" d="M324.4,57.1l-14.6-32.6c0,0-8.6,5.4-40.3,40.8c0.7,0.6,15.8,3.8,29.6,23.9
		C299.3,89.6,324.4,57.1,324.4,57.1z"/>
	
		<radialGradient id="SVGID_8_" cx="103.0068" cy="132.5375" r="16.5795" gradientTransform="matrix(0.8491 0 0 0.5 100.712 -18.3508)" gradientUnits="userSpaceOnUse">
		<stop  offset="0" style="stop-color:#E5E2DF"/>
		<stop  offset="0" style="stop-color:#D6D4D1"/>
		<stop  offset="0" style="stop-color:#AFAEAD"/>
		<stop  offset="0" style="stop-color:#8F8F8F"/>
		<stop  offset="0.2677" style="stop-color:#9C9D9E"/>
		<stop  offset="0.5225" style="stop-color:#ADAEB0"/>
		<stop  offset="0.6034" style="stop-color:#A4A4A6"/>
		<stop  offset="0.7397" style="stop-color:#8A8B8C"/>
		<stop  offset="0.9136" style="stop-color:#616162"/>
		<stop  offset="1" style="stop-color:#4A4A4A"/>
	</radialGradient>
	<ellipse fill="url(#SVGID_8_)" cx="188.2" cy="47.9" rx="19.7" ry="1.5"/>
	<linearGradient id="SVGID_9_" gradientUnits="userSpaceOnUse" x1="183.9251" y1="39.2427" x2="190.8031" y2="39.2427">
		<stop  offset="0" style="stop-color:#E5E2DF"/>
		<stop  offset="0" style="stop-color:#F1EFEE"/>
		<stop  offset="0" style="stop-color:#FFFFFF"/>
		<stop  offset="0.1259" style="stop-color:#F0F0F1"/>
		<stop  offset="0.3664" style="stop-color:#C9CACB"/>
		<stop  offset="0.5225" style="stop-color:#ADAEB0"/>
		<stop  offset="0.6029" style="stop-color:#A3A5A7"/>
		<stop  offset="0.7382" style="stop-color:#898D90"/>
		<stop  offset="0.9108" style="stop-color:#5F6769"/>
		<stop  offset="1" style="stop-color:#465053"/>
	</linearGradient>
	<path fill="url(#SVGID_9_)" d="M190.8,47c-3,2.8-6.9,0-6.9,0V30.3h6.9C190.8,30.3,190.8,45.3,190.8,47z"/>
	<radialGradient id="SVGID_10_" cx="187.5013" cy="16.0952" r="16.0955" gradientUnits="userSpaceOnUse">
		<stop  offset="0" style="stop-color:#E5E2DF"/>
		<stop  offset="0" style="stop-color:#F1EFEE"/>
		<stop  offset="0" style="stop-color:#FFFFFF"/>
		<stop  offset="0.1259" style="stop-color:#F0F0F1"/>
		<stop  offset="0.3664" style="stop-color:#C9CACB"/>
		<stop  offset="0.5225" style="stop-color:#ADAEB0"/>
		<stop  offset="0.6029" style="stop-color:#A3A5A7"/>
		<stop  offset="0.7382" style="stop-color:#898D90"/>
		<stop  offset="0.9108" style="stop-color:#5F6769"/>
		<stop  offset="1" style="stop-color:#465053"/>
	</radialGradient>
	<circle fill="url(#SVGID_10_)" cx="187.5" cy="16.1" r="16.1"/>
</g>
</svg>
