<?xml version="1.0" encoding="utf-8"?>
<!-- Generator: Adobe Illustrator 19.0.0, SVG Export Plug-In . SVG Version: 6.00 Build 0)  -->
<svg version="1.1" id="Layer_1" xmlns="http://www.w3.org/2000/svg" xmlns:xlink="http://www.w3.org/1999/xlink" x="0px" y="0px"
	 viewBox="-251 360.4 108 72.6" style="enable-background:new -251 360.4 108 72.6;" xml:space="preserve">
<style type="text/css">
	.st0{display:none;}
	.st1{display:inline;}
	.st2{fill:#FFFFFF;}
	.st3{fill:#6564A8;}
</style>
<g id="ctr_small" class="st0">
	<g class="st1">
		<path class="st2" d="M-213.7,440.8c0,0.9,0.7,1.5,1.6,1.5c0.9,0,1.7-0.6,1.7-1.5v-3.4l0.4-0.5h-1.4l0.5,0.5v3.4
			c0,0.6-0.5,1.1-1.1,1.1s-1.2-0.5-1.2-1.1v-3.4l0.5-0.5h-1.5l0.5,0.5V440.8L-213.7,440.8z M-207.7,441.8v-4l2.8,4.4h0.2v-4.8
			l0.5-0.5h-1.4l0.5,0.5v3.4l-2.4-3.8h-1.1l0.4,0.5v4.4l-0.4,0.5h1.4L-207.7,441.8L-207.7,441.8z M-202.8,437l0.4,0.4v4.5l-0.4,0.4
			h1.4l-0.4-0.4v-4.5l0.4-0.4H-202.8L-202.8,437z M-198.7,437h-1.5l0.4,0.4l1.5,4.9h0.3l1.5-4.9l0.4-0.4h-1.3l0.4,0.4l-1,3.6
			l-1.1-3.6L-198.7,437L-198.7,437z M-191.8,442.3v-1l-0.6,0.6h-1.6v-2.2h1.2l0.4,0.4v-1.2l-0.4,0.4h-1.2v-1.9h1.6l0.6,0.6v-1h-3.2
			l0.4,0.4v4.5l-0.4,0.4H-191.8L-191.8,442.3z M-189.4,441.8v-2h0.8l1.3,2.5h0.9l-0.4-0.4l-1.2-2.2c0.6-0.2,1-0.7,1-1.2
			c0-0.9-0.8-1.5-1.7-1.5h-1.6l0.3,0.4v4.5l-0.4,0.4h1.4L-189.4,441.8L-189.4,441.8z M-189.4,437.4h0.6c0.6,0,1,0.5,1,1.1
			c0,0.5-0.5,1-1,1h-0.6V437.4L-189.4,437.4z M-182.6,440.8c0-0.5-0.2-0.8-0.5-1l-1.1-0.8c-0.4-0.3-0.6-0.6-0.6-0.9
			c0-0.6,0.5-0.8,0.8-0.8c0.2,0,0.3,0.1,0.3,0.1l0.5,0.5l0.5-0.7l-1.1-0.2c-0.1,0-0.1,0-0.3,0c-0.9,0-1.3,0.8-1.3,1.3
			c0,0.4,0.2,0.9,0.7,1.2l1.1,0.8c0.3,0.2,0.4,0.5,0.4,0.8c0,0.4-0.3,0.9-0.9,0.9c-0.1,0-0.3,0-0.4-0.1l-0.5-0.6l-0.5,0.8l1,0.2
			c0,0,0.2,0,0.3,0C-183.4,442.3-182.6,441.8-182.6,440.8 M-181.1,437l0.4,0.4v4.5l-0.4,0.4h1.4l-0.4-0.4v-4.5l0.4-0.4H-181.1
			L-181.1,437z M-176.2,441.8v-4.4h1l0.6,0.6v-1h-3.7v1l0.6-0.6h1v4.5l-0.4,0.4h1.4L-176.2,441.8L-176.2,441.8z M-173.5,437.4
			l1.3,2.4v2l-0.4,0.4h1.4l-0.4-0.4v-2l1.4-2.4l0.4-0.4h-1.2l0.4,0.4l-1.1,2l-1.1-2l0.4-0.4h-1.5L-173.5,437.4L-173.5,437.4z
			 M-164.8,438.9c-0.2,0-0.5,0.1-0.8,0.3c-0.5,0.3-1.1,1-1.1,2c0,0.5,0.2,1.1,0.9,1.1c0.3,0,0.8-0.2,1.1-0.5
			c0.5-0.4,0.8-1.2,0.8-1.9C-163.9,439.3-164.2,438.9-164.8,438.9 M-166.1,441c0-1.1,0.6-1.7,0.8-1.8c0.1,0,0.2-0.1,0.2-0.1
			c0.4,0,0.6,0.3,0.6,0.9c0,1-0.5,1.8-0.8,2c-0.1,0-0.2,0.1-0.2,0.1C-165.9,442.1-166.1,441.6-166.1,441 M-162.7,439.1l-0.2,0.2v0.1
			h0.6c-0.1,0.7-0.2,1.3-0.3,2.2c-0.2,1.4-0.4,1.9-0.5,2c0,0-0.1,0.1-0.2,0.1c-0.1,0-0.2-0.1-0.3-0.1c-0.1,0-0.2,0-0.2,0.1
			c-0.1,0.1-0.1,0.2-0.1,0.3c0,0.2,0.2,0.2,0.3,0.2c0.1,0,0.5-0.1,0.8-0.5c0.3-0.3,0.6-1,0.9-2.7c0.1-0.3,0.1-0.6,0.2-1.4l0.8-0.1
			l0.2-0.2h-0.9c0.2-1.4,0.4-1.8,0.7-1.8c0.2,0,0.4,0.1,0.6,0.2c0.1,0.1,0.1,0.1,0.2,0c0.1-0.1,0.1-0.2,0.1-0.3
			c0-0.1-0.2-0.3-0.4-0.3c-0.4,0-0.9,0.3-1.2,0.6c-0.3,0.4-0.5,0.9-0.6,1.5h-0.5V439.1z M-154.9,442.3l1.2-3.8l1.2,3.8h0.3l1.5-4.9
			l0.4-0.4h-1.3l0.4,0.4l-1.1,3.7l-1-3.7l0.4-0.4h-1.5l0.4,0.4l0.1,0.3l-1,3.3l-1.1-3.6l0.4-0.4h-1.5l0.4,0.4l1.5,4.9H-154.9
			L-154.9,442.3z M-149.2,441.9l0.4-1.1h1.8l0.4,1.1l-0.4,0.4h1.5l-0.4-0.4l-1.7-4.9h-0.4l-1.7,4.9l-0.4,0.4h1.3L-149.2,441.9
			L-149.2,441.9z M-148,438.1l0.7,2.2h-1.5L-148,438.1L-148,438.1z M-142,440.8c0-0.5-0.2-0.8-0.5-1l-1.1-0.8
			c-0.4-0.3-0.6-0.6-0.6-0.9c0-0.6,0.5-0.8,0.8-0.8c0.2,0,0.3,0.1,0.3,0.1l0.5,0.5l0.5-0.7l-1.1-0.2c-0.1,0-0.1,0-0.3,0
			c-0.9,0-1.3,0.8-1.3,1.3c0,0.4,0.2,0.9,0.7,1.2l1.1,0.8c0.3,0.2,0.4,0.5,0.4,0.8c0,0.4-0.3,0.9-0.9,0.9c-0.1,0-0.3,0-0.4-0.1
			l-0.5-0.6l-0.5,0.8l1,0.2c0,0,0.2,0,0.3,0C-142.9,442.3-142,441.8-142,440.8 M-139.6,439.6h2.2v2.2l-0.4,0.4h1.4l-0.4-0.4v-4.4
			l0.4-0.4h-1.4l0.4,0.4v1.8h-2.2v-1.8l0.4-0.4h-1.4l0.4,0.4v4.5l-0.4,0.4h1.4l-0.4-0.4V439.6L-139.6,439.6z M-134.9,437l0.4,0.4
			v4.5l-0.4,0.4h1.4l-0.4-0.4v-4.5l0.4-0.4H-134.9L-134.9,437z M-131.1,441.8v-4l2.8,4.4h0.2v-4.8l0.5-0.5h-1.4l0.5,0.5v3.4
			l-2.4-3.8h-1.1l0.4,0.5v4.4l-0.4,0.5h1.4L-131.1,441.8L-131.1,441.8z M-123.3,439.9v1.7c-0.1,0.1-0.4,0.4-0.9,0.4
			c-1.2,0-1.8-1.2-1.8-2.3s0.7-2.3,1.8-2.3c0.3,0,0.5,0.1,0.6,0.3l0.6,0.6v-0.9c-0.3-0.2-0.6-0.3-1.2-0.3c-1.4,0-2.5,1.3-2.5,2.7
			s1,2.7,2.5,2.7c0.8,0,1.2-0.2,1.5-0.4V440l0.4-0.4h-1.4L-123.3,439.9L-123.3,439.9z M-119.3,441.8v-4.4h1l0.6,0.6v-1h-3.7v1
			l0.6-0.6h1v4.5l-0.4,0.4h1.4L-119.3,441.8L-119.3,441.8z M-117,439.6c0,1.3,0.8,2.8,2.1,2.8c1.4,0,2.1-1.4,2.1-2.8
			c0-1.3-0.8-2.8-2.1-2.8C-116.2,436.9-117,438.3-117,439.6 M-114.8,442c-1.1,0-1.4-1.3-1.4-2.4c0-1.1,0.4-2.4,1.4-2.4
			c1.1,0,1.4,1.3,1.4,2.4C-113.4,440.7-113.8,442-114.8,442 M-110.7,441.8v-4l2.8,4.4h0.3v-4.8l0.5-0.5h-1.4l0.5,0.5v3.4l-2.4-3.8
			h-1.1l0.4,0.5v4.4l-0.4,0.5h1.4L-110.7,441.8L-110.7,441.8z"/>
		<polygon class="st2" points="-167.9,422.1 -167.9,423.8 -166.7,423.8 -164.8,431.7 -162,431.7 -160.7,426.8 -159.4,431.7 
			-156.7,431.7 -154.6,423.8 -153.6,423.8 -153.6,422.1 -157.3,422.1 -157.3,423.8 -156.1,423.8 -157.5,429 -159.2,422.1 
			-160.9,422.1 -162.8,429 -164.1,423.8 -162.7,423.8 -162.7,422.1 		"/>
	</g>
</g>
<g id="ctr_large" class="st0">
	<g class="st1">
		<path class="st2" d="M-286,452.4c0,2.1,1.7,3.6,3.9,3.6c2,0,4.1-1.5,4.1-3.6v-8.1l1.1-1.1h-3.3l1.1,1.1v8.1c0,1.4-1.1,2.6-2.6,2.6
			s-2.8-1.1-2.8-2.6v-8.1l1.1-1.1h-3.6l1.1,1.1v8.1H-286z M-271.9,454.7v-9.4l6.7,10.5h0.4v-11.5l1.1-1.1h-3.3l1.1,1.1v8l-5.7-9.1
			h-2.6l1.1,1.1v10.4l-1.1,1.1h3.3L-271.9,454.7L-271.9,454.7z M-260.2,443.3l1,1v10.5l-1,1h3.4l-1-1v-10.5l1-1H-260.2L-260.2,443.3
			z M-250.5,443.3h-3.6l1,1l3.5,11.5h0.6l3.6-11.5l1-1h-3l1,1l-2.7,8.7l-2.6-8.7L-250.5,443.3L-250.5,443.3z M-234.2,455.8v-2.3
			l-1.3,1.4h-3.8v-5.3h2.8l1,1v-2.9l-1,1h-2.8v-4.5h3.8l1.3,1.3v-2.3h-7.5l1,1v10.5l-1,1h7.5V455.8z M-228.6,454.8V450h1.9l3,5.8
			h2.1l-1-1l-2.8-5.1c1.4-0.4,2.4-1.7,2.4-2.9c0-2.1-2-3.5-4.1-3.5h-3.9l1,1v10.5l-1,1h3.4L-228.6,454.8L-228.6,454.8z
			 M-228.6,444.2h1.5c1.3,0,2.4,1.1,2.4,2.5c0,1.3-1.1,2.3-2.4,2.3h-1.5V444.2L-228.6,444.2z M-212.5,452.3c0-1.2-0.6-2-1.2-2.4
			l-2.6-1.8c-0.9-0.7-1.4-1.5-1.4-2.1c0-1.3,1.1-1.8,1.8-1.8c0.4,0,0.6,0.1,0.8,0.1l1.1,1.2l1.2-1.7l-2.5-0.5
			c-0.2,0-0.3-0.1-0.6-0.1c-2.2,0-3.2,1.9-3.2,3.1c0,1,0.5,2,1.6,2.9l2.6,1.9c0.7,0.5,0.9,1.2,0.9,1.8c0,1.1-0.7,2.2-2.1,2.2
			c-0.3,0-0.6-0.1-0.9-0.2l-1-1.4l-1.1,2l2.4,0.5c0,0,0.4,0.1,0.7,0.1C-214.5,456-212.5,454.7-212.5,452.3 M-208.8,443.3l1,1v10.5
			l-1,1h3.4l-1-1v-10.5l1-1H-208.8L-208.8,443.3z M-197.5,454.8v-10.6h2.4l1.3,1.3v-2.3h-8.8v2.3l1.4-1.3h2.4v10.6l-1,1h3.4
			L-197.5,454.8L-197.5,454.8z M-190.9,444.3l3.2,5.7v4.8l-1,1h3.4l-1-1V450l3.2-5.7l1-1h-3.1l1,1l-2.6,4.7l-2.5-4.7l1-1h-3.6
			L-190.9,444.3L-190.9,444.3z M-170.4,447.9c-0.5,0-1.2,0.2-1.9,0.6c-1.2,0.7-2.5,2.4-2.5,4.8c0,1.2,0.6,2.6,2.2,2.6
			c0.8,0,1.9-0.5,2.6-1.2c1.2-1.1,1.9-2.9,1.9-4.5C-168.1,448.8-168.9,447.9-170.4,447.9 M-173.4,452.9c0-2.6,1.3-4,1.9-4.3
			c0.2-0.1,0.4-0.1,0.6-0.1c0.9,0,1.4,0.7,1.4,2c0,2.3-1.2,4.4-1.9,4.6c-0.1,0.1-0.4,0.1-0.5,0.1
			C-173,455.3-173.4,454.2-173.4,452.9 M-165.5,448.3l-0.5,0.5l0.1,0.2h1.5c-0.2,1.6-0.4,3-0.8,5.2c-0.5,3.3-0.9,4.5-1.2,4.8
			c-0.1,0.1-0.3,0.2-0.4,0.2c-0.2,0-0.5-0.2-0.8-0.3c-0.2-0.1-0.4,0-0.5,0.1c-0.1,0.2-0.3,0.4-0.3,0.6c0,0.4,0.5,0.5,0.8,0.5
			s1.2-0.3,1.9-1.2c0.6-0.7,1.4-2.5,2.1-6.4c0.1-0.7,0.3-1.5,0.6-3.4l1.8-0.2l0.4-0.5h-2.1c0.5-3.3,1-4.3,1.7-4.3
			c0.5,0,1,0.2,1.4,0.6c0.1,0.1,0.3,0.1,0.5,0c0.1-0.1,0.4-0.4,0.4-0.7c0-0.4-0.5-0.7-1.1-0.7c-1,0-2.1,0.6-2.8,1.5
			c-0.7,0.8-1.1,2.2-1.4,3.6h-1.3V448.3z M-146.9,455.8l2.9-9.1l2.8,9.1h0.6l3.6-11.5l1-1h-3l1,1l-2.7,8.7l-2.6-8.7l1-1h-3.6l1,1
			l0.3,0.8l-2.4,7.8l-2.6-8.7l1-1h-3.4l1,1l3.5,11.5L-146.9,455.8L-146.9,455.8z M-133.5,454.8l0.9-2.7h4.1l0.9,2.7l-1,1h3.6l-1-1
			l-3.9-11.5h-0.6l-4,11.5l-1,1h3L-133.5,454.8L-133.5,454.8z M-130.5,446l1.7,5.2h-3.5L-130.5,446L-130.5,446z M-116.5,452.3
			c0-1.2-0.6-2-1.2-2.4l-2.6-1.8c-0.9-0.7-1.4-1.5-1.4-2.1c0-1.3,1.1-1.8,1.8-1.8c0.4,0,0.6,0.1,0.8,0.1l1.1,1.2l1.2-1.7l-2.5-0.5
			c-0.2,0-0.3-0.1-0.6-0.1c-2.2,0-3.2,1.9-3.2,3.1c0,1,0.5,2,1.6,2.9l2.6,1.9c0.7,0.5,0.9,1.2,0.9,1.8c0,1.1-0.7,2.2-2.1,2.2
			c-0.3,0-0.6-0.1-0.9-0.2l-1.2-1.4l-1.1,2l2.4,0.5c0,0,0.4,0.1,0.7,0.1C-118.4,456-116.5,454.7-116.5,452.3 M-110.8,449.5h5.3v5.3
			l-1,1h3.4l-1-1v-10.5l1-1h-3.4l1,1v4.3h-5.3v-4.3l1-1h-3.4l1,1v10.5l-1,1h3.4l-1-1V449.5L-110.8,449.5z M-99.7,443.3l1,1v10.5
			l-1,1h3.4l-1-1v-10.5l1-1H-99.7L-99.7,443.3z M-90.7,454.7v-9.4l6.6,10.5h0.6v-11.5l1.1-1.1h-3.3l1.1,1.1v8l-5.7-9.1h-2.6l1.1,1.1
			v10.4l-1.1,1.1h3.3L-90.7,454.7L-90.7,454.7z M-72.1,450.1v4c-0.3,0.3-0.9,0.9-2.1,0.9c-2.8,0-4.2-2.8-4.2-5.5
			c0-2.7,1.8-5.5,4.2-5.5c0.6,0,1.1,0.1,1.5,0.6l1.4,1.4v-2.2c-0.7-0.4-1.5-0.7-2.9-0.7c-3.4,0-5.8,3.1-5.8,6.4s2.4,6.4,5.8,6.4
			c1.9,0,2.8-0.5,3.4-0.9v-5l1-1h-3.4L-72.1,450.1L-72.1,450.1z M-62.8,454.8v-10.6h2.4l1.3,1.3v-2.3h-8.8v2.3l1.4-1.3h2.4v10.6
			l-1,1h3.4L-62.8,454.8L-62.8,454.8z M-57.1,449.5c0,3.2,1.8,6.5,5,6.5s5-3.4,5-6.5c0-3.2-1.8-6.6-5-6.6
			C-55.3,443-57.1,446.3-57.1,449.5 M-52.1,455.1c-2.5,0-3.4-3-3.4-5.6c0-2.6,0.9-5.6,3.4-5.6s3.4,3,3.4,5.6
			C-48.7,452.1-49.5,455.1-52.1,455.1 M-42.4,454.7v-9.4l6.5,10.5h0.6v-11.5l1.1-1.1h-3.3l1.1,1.1v8l-5.7-9.1h-2.6l1.1,1.1v10.4
			l-1.1,1.1h3.3L-42.4,454.7L-42.4,454.7z"/>
		<polygon class="st2" points="-177.5,408.1 -177.5,412.2 -174.8,412.2 -170.2,430.9 -163.7,430.9 -160.6,419.2 -157.6,430.9 
			-151.1,430.9 -146.2,412.2 -143.7,412.2 -143.7,408.1 -152.7,408.1 -152.7,412.2 -149.7,412.2 -152.9,424.4 -156.9,408.1 
			-161,408.1 -165.4,424.5 -168.6,412.2 -165.3,412.2 -165.3,408.1 		"/>
	</g>
</g>
<g id="left_small" class="st0">
	<g class="st1">
		<polygon class="st2" points="-224.1,428.1 -224.1,429.9 -223,429.9 -221,437.8 -218.2,437.8 -216.9,432.8 -215.7,437.8 
			-212.9,437.8 -210.8,429.9 -209.7,429.9 -209.7,428.1 -213.5,428.1 -213.5,429.9 -212.3,429.9 -213.6,435 -215.4,428.1 
			-217.1,428.1 -219,435.1 -220.3,429.9 -219,429.9 -219,428.1 		"/>
		<path class="st2" d="M-205.9,434.8c0,0.9,0.7,1.5,1.6,1.5c0.9,0,1.7-0.6,1.7-1.5v-3.4l0.4-0.5h-1.4l0.6,0.5v3.4
			c0,0.6-0.5,1.1-1.1,1.1c-0.6,0-1.2-0.5-1.2-1.1v-3.4l0.5-0.5h-1.5l0.5,0.5L-205.9,434.8L-205.9,434.8z M-199.9,435.8v-4l2.8,4.4
			h0.2v-4.8l0.5-0.5h-1.4l0.5,0.5v3.4l-2.4-3.8h-1.1l0.4,0.5v4.4l-0.4,0.5h1.4L-199.9,435.8L-199.9,435.8z M-195,431l0.4,0.4v4.4
			l-0.4,0.4h1.4l-0.4-0.4v-4.4l0.4-0.4H-195L-195,431z M-190.9,431h-1.5l0.4,0.4l1.5,4.9h0.3l1.5-4.9l0.4-0.4h-1.3l0.4,0.4l-1.1,3.7
			l-1-3.7L-190.9,431L-190.9,431z M-184,436.2v-1l-0.6,0.6h-1.6v-2.2h1.2l0.4,0.4v-1.2l-0.4,0.4h-1.2v-1.8h1.6l0.6,0.6v-1h-3.2
			l0.4,0.4v4.4l-0.4,0.4H-184L-184,436.2z M-181.6,435.8v-2h0.8l1.3,2.5h0.9l-0.4-0.4l-1.2-2.2c0.6-0.2,1-0.7,1-1.2
			c0-0.9-0.8-1.5-1.7-1.5h-1.6l0.4,0.4v4.4l-0.4,0.4h1.4L-181.6,435.8L-181.6,435.8z M-181.6,431.4h0.6c0.6,0,1,0.5,1,1.1
			c0,0.5-0.5,1-1,1h-0.6V431.4L-181.6,431.4z M-174.8,434.8c0-0.5-0.2-0.8-0.5-1l-1.1-0.8c-0.4-0.3-0.6-0.6-0.6-0.9
			c0-0.6,0.5-0.8,0.8-0.8c0.2,0,0.3,0.1,0.3,0.1l0.5,0.5l0.5-0.7l-1.1-0.2c-0.1,0-0.1,0-0.3,0c-0.9,0-1.3,0.8-1.3,1.3
			c0,0.4,0.2,0.9,0.7,1.2l1.1,0.8c0.3,0.2,0.4,0.5,0.4,0.8c0,0.4-0.3,0.9-0.9,0.9c-0.1,0-0.3,0-0.4-0.1l-0.5-0.6l-0.5,0.8l1,0.2
			c0,0,0.2,0,0.3,0C-175.7,436.3-174.8,435.8-174.8,434.8 M-173.3,431l0.4,0.4v4.4l-0.4,0.4h1.4l-0.4-0.4v-4.4l0.4-0.4H-173.3
			L-173.3,431z M-168.5,435.8v-4.4h1l0.6,0.6v-1h-3.7v1l0.6-0.6h1v4.5l-0.4,0.4h1.4L-168.5,435.8L-168.5,435.8z M-165.7,431.4
			l1.3,2.4v2l-0.4,0.4h1.4l-0.4-0.4v-2l1.4-2.4l0.4-0.4h-1.3l0.4,0.4l-1.1,2l-1-2l0.4-0.4h-1.5L-165.7,431.4L-165.7,431.4z
			 M-156.7,432.9c-0.2,0-0.5,0.1-0.8,0.3c-0.5,0.3-1.1,1-1.1,2c0,0.5,0.2,1.1,0.9,1.1c0.3,0,0.8-0.2,1.1-0.5
			c0.5-0.4,0.8-1.2,0.8-1.9C-155.8,433.3-156.1,432.9-156.7,432.9 M-158,435c0-1.1,0.6-1.7,0.8-1.8c0.1,0,0.2-0.1,0.2-0.1
			c0.4,0,0.6,0.3,0.6,0.9c0,1-0.5,1.8-0.8,1.9c-0.1,0-0.2,0.1-0.2,0.1C-157.9,436-158,435.6-158,435 M-154.7,433.1l-0.2,0.2v0.1h0.6
			c-0.1,0.7-0.2,1.2-0.3,2.2c-0.2,1.4-0.4,1.9-0.5,2c0,0-0.1,0.1-0.2,0.1c-0.1,0-0.2-0.1-0.3-0.1c-0.1,0-0.2,0-0.2,0.1
			c-0.1,0.1-0.1,0.2-0.1,0.3c0,0.1,0.2,0.2,0.3,0.2c0.1,0,0.5-0.1,0.8-0.5c0.3-0.3,0.6-1,0.9-2.7c0.1-0.3,0.1-0.6,0.2-1.4l0.8-0.1
			l0.2-0.2h-0.9c0.2-1.4,0.4-1.8,0.7-1.8c0.2,0,0.4,0.1,0.6,0.2c0.1,0.1,0.1,0.1,0.2,0c0.1-0.1,0.1-0.2,0.1-0.3
			c0-0.1-0.2-0.3-0.4-0.3c-0.4,0-0.9,0.3-1.2,0.6c-0.3,0.3-0.5,0.9-0.6,1.5h-0.5V433.1z M-146.2,436.2l1.2-3.8l1.2,3.8h0.3l1.5-4.8
			l0.4-0.4h-1.3l0.4,0.4l-1.1,3.7l-1.1-3.7l0.4-0.4h-1.5l0.4,0.4l0.1,0.3l-1,3.3l-1.1-3.7l0.4-0.4h-1.5l0.5,0.5l1.5,4.9
			L-146.2,436.2L-146.2,436.2z M-140.6,435.8l0.4-1.1h1.7l0.4,1.1l-0.4,0.4h1.5l-0.4-0.4l-1.7-4.9h-0.3l-1.7,4.9l-0.4,0.4h1.3
			L-140.6,435.8L-140.6,435.8z M-139.3,432.1l0.7,2.2h-1.5L-139.3,432.1L-139.3,432.1z M-133.4,434.8c0-0.5-0.2-0.8-0.5-1l-1.1-0.8
			c-0.4-0.3-0.6-0.6-0.6-0.9c0-0.6,0.5-0.8,0.8-0.8c0.2,0,0.3,0.1,0.3,0.1l0.5,0.5l0.5-0.7l-1-0.2c-0.1,0-0.1,0-0.3,0
			c-0.9,0-1.3,0.8-1.3,1.3c0,0.4,0.2,0.9,0.7,1.2l1.1,0.8c0.3,0.2,0.4,0.5,0.4,0.8c0,0.4-0.3,0.9-0.9,0.9c-0.1,0-0.3,0-0.4-0.1
			l-0.5-0.6l-0.5,0.8l1,0.2c0,0,0.2,0,0.3,0C-134.2,436.3-133.4,435.8-133.4,434.8 M-131,433.6h2.2v2.2l-0.4,0.4h1.4l-0.4-0.4v-4.4
			l0.4-0.4h-1.4l0.4,0.4v1.8h-2.2v-1.8l0.4-0.4h-1.4l0.4,0.4v4.4l-0.4,0.4h1.4l-0.4-0.4V433.6L-131,433.6z M-126.3,431l0.4,0.4v4.4
			l-0.4,0.4h1.4l-0.4-0.4v-4.4l0.4-0.4H-126.3L-126.3,431z M-122.5,435.8v-4l2.8,4.4h0.2v-4.8l0.5-0.5h-1.4l0.5,0.5v3.4l-2.4-3.8
			h-1.1l0.4,0.4v4.4l-0.4,0.5h1.4L-122.5,435.8L-122.5,435.8z M-114.6,433.8v1.7c-0.1,0.1-0.4,0.4-0.9,0.4c-1.2,0-1.8-1.2-1.8-2.3
			c0-1.1,0.7-2.3,1.8-2.3c0.3,0,0.5,0.1,0.6,0.3l0.6,0.6v-0.9c-0.3-0.2-0.6-0.3-1.2-0.3c-1.4,0-2.5,1.3-2.5,2.7s1,2.7,2.5,2.7
			c0.8,0,1.2-0.2,1.5-0.4v-2.1l0.4-0.4h-1.4L-114.6,433.8L-114.6,433.8z M-110.4,435.8v-4.4h1l0.6,0.6v-1h-3.7v1l0.5-0.6h1v4.5
			l-0.4,0.4h1.4L-110.4,435.8L-110.4,435.8z M-107.7,433.6c0,1.3,0.8,2.8,2.1,2.8c1.4,0,2.1-1.4,2.1-2.8c0-1.3-0.8-2.8-2.1-2.8
			C-107,430.8-107.7,432.3-107.7,433.6 M-105.6,436c-1.1,0-1.4-1.3-1.4-2.4c0-1.1,0.4-2.4,1.4-2.4c1.1,0,1.4,1.3,1.4,2.4
			C-104.2,434.7-104.5,436-105.6,436 M-101.2,435.8v-4l2.8,4.4h0.3v-4.8l0.5-0.5H-99l0.5,0.5v3.4l-2.4-3.8h-1.1l0.4,0.5v4.4
			l-0.4,0.5h1.4L-101.2,435.8L-101.2,435.8z"/>
	</g>
</g>
<g id="left_large" class="st0">
	<g class="st1">
		<path class="st2" d="M-263.7,436.4c0,2,1.7,3.5,3.7,3.5s3.9-1.4,3.9-3.5v-7.8l1-1h-3.1l1,1v7.8c0,1.4-1.1,2.5-2.5,2.5
			c-1.4,0-2.7-1.1-2.7-2.5v-7.8l1-1h-3.5l1,1v7.8H-263.7z M-250.2,438.6v-9l6.5,10h0.4v-11l1-1h-3.1l1,1v7.6l-5.4-8.7h-2.5l1,1v9.9
			l-1,1h3.1L-250.2,438.6L-250.2,438.6z M-239,427.6l1,1v10.1l-1,1h3.2l-1-1v-10.1l1-1H-239L-239,427.6z M-229.7,427.6h-3.4l1,1
			l3.4,11h0.6l3.5-11l1-1h-2.9l0.9,0.9l-2.5,8.3l-2.5-8.3L-229.7,427.6L-229.7,427.6z M-214.1,439.6v-2.2l-1.3,1.3h-3.6v-5h2.7l1,1
			v-2.8l-1,1h-2.7v-4.3h3.6l1.3,1.3v-2.2h-7.2l0.9,1v10.1l-0.9,1h7.2V439.6z M-208.7,438.6V434h1.8l2.9,5.6h2l-0.9-1l-2.7-4.9
			c1.3-0.4,2.3-1.7,2.3-2.8c0-2-1.9-3.3-3.9-3.3h-3.7l0.9,1v10.1l-0.9,1h3.2L-208.7,438.6L-208.7,438.6z M-208.7,428.5h1.5
			c1.3,0,2.3,1.1,2.3,2.4c0,1.2-1,2.2-2.3,2.2h-1.5V428.5L-208.7,428.5z M-193.2,436.3c0-1.2-0.6-1.9-1.1-2.3l-2.4-1.8
			c-0.9-0.6-1.3-1.4-1.3-2.1c0-1.3,1.1-1.7,1.7-1.7c0.3,0,0.6,0.1,0.8,0.1l1.1,1.1l1.1-1.7l-2.4-0.4c-0.2,0-0.3-0.1-0.6-0.1
			c-2.1,0-3.1,1.8-3.1,3c0,0.9,0.5,2,1.5,2.7l2.5,1.8c0.7,0.5,0.9,1.2,0.9,1.8c0,1-0.6,2.1-2,2.1c-0.3,0-0.6-0.1-0.8-0.2l-1.2-1.2
			l-1,1.9l2.3,0.4c0,0,0.4,0.1,0.7,0.1C-195.1,439.8-193.2,438.5-193.2,436.3 M-189.7,427.6l1,1v10.1l-1,1h3.2l-1-1v-10.1l1-1
			H-189.7L-189.7,427.6z M-178.8,438.6v-10.1h2.3l1.3,1.3v-2.2h-8.5v2.2l1.3-1.3h2.3v10.2l-0.9,1h3.2L-178.8,438.6L-178.8,438.6z
			 M-172.5,428.6l3,5.5v4.6l-1,1h3.2l-1-1v-4.6l3.1-5.5l1-1h-3l0.9,0.9l-2.5,4.5l-2.2-4.5l0.9-0.9h-3.4L-172.5,428.6L-172.5,428.6z
			 M-152.2,432c-0.4,0-1.1,0.2-1.8,0.6c-1.2,0.7-2.4,2.3-2.4,4.6c0,1.2,0.6,2.5,2.1,2.5c0.7,0,1.8-0.5,2.5-1.1
			c1.1-1,1.8-2.8,1.8-4.3C-150,432.9-150.7,432-152.2,432 M-155.1,436.8c0-2.5,1.3-3.9,1.8-4.1c0.2-0.1,0.4-0.1,0.6-0.1
			c0.8,0,1.3,0.6,1.3,1.9c0,2.2-1.1,4.2-1.8,4.4c-0.1,0.1-0.4,0.1-0.5,0.1C-154.7,439.1-155.1,438.1-155.1,436.8 M-147.4,432.4
			l-0.5,0.4l0.1,0.2h1.4c-0.2,1.5-0.4,2.8-0.7,5c-0.5,3.2-0.8,4.3-1.2,4.5c-0.1,0.1-0.3,0.2-0.4,0.2c-0.2,0-0.5-0.2-0.7-0.3
			s-0.4,0-0.5,0.1c-0.1,0.2-0.3,0.4-0.3,0.6c0,0.3,0.4,0.5,0.7,0.5c0.3,0,1.1-0.3,1.9-1.2c0.6-0.7,1.4-2.3,2-6.2
			c0.1-0.7,0.3-1.4,0.5-3.3l1.7-0.2l0.4-0.3h-2c0.5-3.1,0.9-4.1,1.7-4.1c0.5,0,0.9,0.2,1.3,0.6c0.1,0.1,0.3,0.1,0.5,0
			c0.1-0.1,0.3-0.4,0.3-0.6c0-0.3-0.4-0.7-1-0.7c-1,0-2,0.6-2.7,1.4s-1.1,2.1-1.3,3.4H-147.4L-147.4,432.4z M-128.2,439.6l2.8-8.7
			l2.7,8.7h0.6l3.5-11l1-1h-2.9l0.9,0.9l-2.5,8.3l-2.5-8.3l0.9-0.9h-3.4l1,1l0.2,0.8l-2.3,7.5l-2.5-8.3l0.9-0.9h-3.4l1,1l3.4,11h0.6
			V439.6z M-115.4,438.7l0.9-2.5h4l0.8,2.5l-0.9,0.9h3.4l-1-1l-3.8-11h-0.6l-3.8,11l-1,1h2.9L-115.4,438.7L-115.4,438.7z
			 M-112.5,430.3l1.7,5h-3.4L-112.5,430.3L-112.5,430.3z M-99.1,436.3c0-1.2-0.5-1.9-1.1-2.3l-2.4-1.8c-0.9-0.6-1.3-1.4-1.3-2.1
			c0-1.3,1.1-1.7,1.7-1.7c0.3,0,0.6,0.1,0.8,0.1l1.1,1.1l1.1-1.7l-2.4-0.4c-0.2,0-0.3-0.1-0.6-0.1c-2.1,0-3.1,1.8-3.1,3
			c0,0.9,0.5,2,1.5,2.7l2.5,1.8c0.7,0.5,0.9,1.2,0.9,1.8c0,1-0.6,2.1-2,2.1c-0.3,0-0.6-0.1-0.8-0.2l-1.1-1.3l-1,1.9l2.3,0.4
			c0,0,0.4,0.1,0.7,0.1C-101,439.8-99.1,438.5-99.1,436.3 M-93.7,433.6h5.1v5.1l-1,1h3.2l-1-1v-10.1l1-1h-3.2l1,1v4.1h-5.1v-4.1l1-1
			h-3.2l0.9,1v10.1l-0.9,1h3.2l-1-1V433.6L-93.7,433.6z M-83,427.6l1,1v10.1l-1,1h3.2l-1-1v-10.1l1-1H-83L-83,427.6z M-74.4,438.6
			v-9l6.3,10h0.5v-11l1-1h-3.1l1,1v7.6l-5.4-8.7h-2.5l1,1v9.9l-1,1h3.1L-74.4,438.6L-74.4,438.6z M-56.5,434.1v3.9
			c-0.3,0.3-0.9,0.9-2,0.9c-2.7,0-4-2.7-4-5.3c0-2.6,1.7-5.3,4-5.3c0.6,0,1.1,0.1,1.5,0.6l1.3,1.3v-2.1c-0.7-0.4-1.4-0.7-2.8-0.7
			c-3.3,0-5.6,2.9-5.6,6.2c0,3.2,2.3,6.2,5.6,6.2c1.9,0,2.6-0.4,3.3-0.9v-4.7l0.9-1h-3.2L-56.5,434.1L-56.5,434.1z M-46.9,438.6
			v-10.1h2.3l1.3,1.3v-2.2h-8.5v2.2l1.3-1.3h2.3v10.2l-0.9,1h3.2L-46.9,438.6L-46.9,438.6z M-40.8,433.6c0,3.1,1.7,6.3,4.8,6.3
			s4.8-3.2,4.8-6.3c0-3.1-1.7-6.3-4.8-6.3S-40.8,430.5-40.8,433.6 M-36,439c-2.4,0-3.2-2.9-3.2-5.4s0.8-5.4,3.2-5.4s3.3,2.9,3.3,5.4
			S-33.6,439-36,439 M-26,438.6v-9l6.3,10h0.6v-11l1-1h-3.1l1,1v7.6l-5.4-8.7h-2.5l1,1v9.9l-1,1h3.1L-26,438.6L-26,438.6z"/>
		<polygon class="st2" points="-305.1,421.1 -305.1,425.1 -302.6,425.1 -298.1,443.1 -291.8,443.1 -288.9,431.8 -286,443.1 
			-279.7,443.1 -275,425.1 -272.6,425.1 -272.6,421.1 -281.2,421.1 -281.2,425.1 -278.4,425.1 -281.5,436.8 -285.3,421.1 
			-289.3,421.1 -293.5,436.9 -296.6,425.1 -293.5,425.1 -293.5,421.1 		"/>
	</g>
</g>
<g id="stacked_small" class="st0">
	<g class="st1">
		<path class="st2" d="M-189.1,436.5c0,1,0.8,1.7,1.8,1.7s1.9-0.7,1.9-1.7v-3.8l0.5-0.5h-1.5l0.5,0.5v3.8c0,0.7-0.5,1.2-1.2,1.2
			c-0.7,0-1.3-0.5-1.3-1.2v-3.8l0.5-0.5h-1.7l0.5,0.5V436.5L-189.1,436.5z M-182.3,437.6v-4.4l3.2,4.9h0.2v-5.4l0.5-0.5h-1.6
			l0.5,0.5v3.7l-2.6-4.2h-1.2l0.5,0.5v4.8l-0.5,0.5h1.5L-182.3,437.6L-182.3,437.6z M-176.6,432.2l0.5,0.5v4.9l-0.5,0.5h1.6
			l-0.5-0.5v-4.9l0.5-0.5H-176.6L-176.6,432.2z M-171.8,432.2h-1.7l0.5,0.5l1.6,5.4h0.4l1.7-5.4l0.5-0.5h-1.4l0.5,0.5l-1.2,4l-1.2-4
			L-171.8,432.2L-171.8,432.2z M-164,438.1V437l-0.6,0.6h-1.8v-2.5h1.4l0.5,0.5v-1.4l-0.5,0.5h-1.3v-2.1h1.8l0.6,0.6v-1.1h-3.5
			l0.5,0.5v4.9l-0.5,0.5L-164,438.1L-164,438.1z M-161.1,437.6v-2.3h0.9l1.4,2.7h1l-0.5-0.5l-1.3-2.4c0.7-0.2,1.1-0.8,1.1-1.4
			c0-1-0.9-1.6-1.9-1.6h-1.8l0.5,0.5v4.9l-0.5,0.5h1.6L-161.1,437.6L-161.1,437.6z M-161.1,432.7h0.7c0.6,0,1.1,0.5,1.1,1.2
			c0,0.6-0.5,1.1-1.1,1.1h-0.7V432.7L-161.1,432.7z M-153.3,436.4c0-0.6-0.3-0.9-0.5-1.1l-1.2-0.8c-0.4-0.3-0.6-0.7-0.6-1
			c0-0.6,0.5-0.8,0.8-0.8c0.2,0,0.3,0.1,0.4,0.1l0.5,0.6l0.5-0.8l-1.2-0.2c-0.1,0-0.1,0-0.3,0c-1,0-1.5,0.9-1.5,1.4
			c0,0.4,0.2,1,0.8,1.3l1.2,0.9c0.3,0.2,0.4,0.6,0.4,0.9c0,0.5-0.3,1-1,1c-0.2,0-0.3,0-0.4-0.1l-0.6-0.7l-0.5,0.9l1.1,0.2
			c0,0,0.2,0,0.3,0C-154.2,438.2-153.3,437.6-153.3,436.4 M-151.4,432.2l0.5,0.5v4.9l-0.5,0.5h1.6l-0.5-0.5v-4.9l0.5-0.5H-151.4
			L-151.4,432.2z M-145.8,437.6v-5h1.1l0.6,0.6v-1.1h-4.1v1.1l0.6-0.6h1.1v5l-0.5,0.5h1.6L-145.8,437.6L-145.8,437.6z M-142.5,432.7
			l1.5,2.7v2.3l-0.5,0.5h1.6l-0.5-0.5v-2.3l1.5-2.7l0.5-0.5h-1.4l0.5,0.5l-1.2,2.2l-1.2-2.2l0.5-0.5h-1.8L-142.5,432.7L-142.5,432.7
			z M-133.6,434.4c-0.2,0-0.6,0.1-0.9,0.3c-0.6,0.3-1.2,1.1-1.2,2.3c0,0.6,0.3,1.2,1,1.2c0.4,0,0.9-0.2,1.2-0.6
			c0.5-0.5,0.9-1.3,0.9-2.1C-132.5,434.8-132.9,434.4-133.6,434.4 M-135,436.7c0-1.2,0.6-1.9,0.9-2c0.1,0,0.2-0.1,0.3-0.1
			c0.4,0,0.6,0.3,0.6,0.9c0,1.1-0.5,2-0.9,2.2c-0.1,0-0.2,0.1-0.3,0.1C-134.8,437.8-135,437.4-135,436.7 M-131.3,434.6l-0.2,0.2v0.1
			h0.7c-0.1,0.7-0.2,1.4-0.4,2.4c-0.2,1.5-0.4,2.1-0.6,2.2c0,0.1-0.1,0.1-0.2,0.1s-0.3-0.1-0.4-0.1c-0.1,0-0.2,0-0.2,0.1
			c-0.1,0.1-0.1,0.2-0.1,0.3c0,0.2,0.2,0.2,0.4,0.2c0.2,0,0.6-0.1,0.9-0.6c0.3-0.3,0.7-1.1,1-3c0.1-0.3,0.1-0.7,0.3-1.6l0.8-0.1
			l0.2-0.2h-1c0.2-1.5,0.5-2,0.8-2c0.2,0,0.5,0.1,0.6,0.3c0.1,0.1,0.1,0.1,0.2,0c0.1-0.1,0.2-0.2,0.2-0.3c0-0.2-0.2-0.3-0.5-0.3
			c-0.5,0-1,0.3-1.3,0.7c-0.3,0.4-0.5,1-0.6,1.7h-0.6V434.6z"/>
		<path class="st2" d="M-192.9,450.3l1.8-5.7l1.7,5.7h0.4l2.3-7.2l0.7-0.7h-1.9l0.6,0.6l-1.7,5.4l-1.6-5.4l0.6-0.6h-2.2l0.6,0.6
			l0.2,0.5l-1.5,4.9l-1.6-5.4l0.6-0.6h-2.2l0.6,0.6l2.2,7.2h0.4V450.3z M-185,449.7l0.6-1.7h2.6l0.5,1.7l-0.6,0.6h2.2l-0.6-0.6
			l-2.5-7.3h-0.4l-2.5,7.2l-0.6,0.6h1.9L-185,449.7L-185,449.7z M-183.2,444.2l1.1,3.3h-2.2L-183.2,444.2L-183.2,444.2z
			 M-174.5,448.1c0-0.8-0.4-1.3-0.7-1.5l-1.7-1.2c-0.6-0.4-0.9-0.9-0.9-1.3c0-0.8,0.7-1.1,1.1-1.1c0.2,0,0.4,0.1,0.5,0.1l0.7,0.7
			l0.7-1.1l-1.4-0.3c-0.1,0-0.2,0-0.4,0c-1.4,0-2,1.2-2,1.9c0,0.6,0.3,1.3,1,1.8l1.6,1.2c0.4,0.3,0.6,0.8,0.6,1.1
			c0,0.7-0.4,1.4-1.3,1.4c-0.2,0-0.4,0-0.5-0.1l-0.8-0.9l-0.7,1.2l1.5,0.3c0,0,0.3,0.1,0.5,0.1
			C-175.8,450.4-174.5,449.6-174.5,448.1 M-171.2,446.3h3.3v3.3l-0.6,0.6h2.1l-0.6-0.5v-6.6l0.6-0.6h-2.1l0.6,0.6v2.7h-3.3v-2.7
			l0.6-0.6h-2.1l0.6,0.6v6.6l-0.6,0.6h2.1l-0.6-0.6L-171.2,446.3L-171.2,446.3z M-158.6,449.6v-5.9l4.2,6.6h0.3v-7.2l0.7-0.7h-2.1
			l0.7,0.7v5l-3.6-5.7h-1.6l0.7,0.7v6.5l-0.7,0.7h2.1L-158.6,449.6L-158.6,449.6z M-147.4,446.7v2.5c-0.2,0.2-0.6,0.6-1.3,0.6
			c-1.7,0-2.6-1.8-2.6-3.5c0-1.7,1.1-3.5,2.6-3.5c0.4,0,0.7,0.1,1,0.4l0.9,0.9v-1.4c-0.5-0.2-0.9-0.5-1.8-0.5c-2.1,0-3.7,1.9-3.7,4
			c0,2.1,1.5,4,3.7,4c1.2,0,1.7-0.3,2.2-0.6v-3.1l0.6-0.6h-2.2L-147.4,446.7L-147.4,446.7z M-141.7,449.7V443h1.5l0.8,0.8v-1.4h-5.5
			v1.4l0.9-0.8h1.5v6.7l-0.6,0.6h2.1L-141.7,449.7L-141.7,449.7z M-138.5,446.4c0,2,1.1,4.1,3.1,4.1s3.2-2.1,3.2-4.1
			s-1.1-4.1-3.2-4.1C-137.4,442.2-138.5,444.4-138.5,446.4 M-135.4,449.9c-1.6,0-2.1-1.9-2.1-3.5s0.5-3.5,2.1-3.5
			c1.6,0,2.1,1.9,2.1,3.5C-133.2,448-133.8,449.9-135.4,449.9 M-129.4,449.6v-5.9l4.2,6.6h0.3v-7.2l0.7-0.7h-2.1l0.7,0.7v5l-3.5-5.7
			h-1.6l0.7,0.7v6.5l-0.7,0.7h2.1L-129.4,449.6L-129.4,449.6z"/>
		<polygon class="st2" points="-164.3,442.4 -163.7,443 -163.7,449.7 -164.3,450.3 -162.2,450.3 -162.8,449.7 -162.8,443 
			-162.2,442.4 		"/>
		<polygon class="st2" points="-168.8,415.1 -168.8,417.1 -167.6,417.1 -165.4,425.9 -162.3,425.9 -160.8,420.4 -159.4,425.9 
			-156.3,425.9 -154,417.1 -152.8,417.1 -152.8,415.1 -157.1,415.1 -157.1,417.1 -155.6,417.1 -157.2,422.8 -159.1,415.1 
			-161,415.1 -163.1,422.9 -164.6,417.1 -163.1,417.1 -163.1,415.1 		"/>
	</g>
</g>
<g id="bothell_stacked_large">
	<g>
		<path class="st3" d="M-171.7,360.4c0,0.9,0,12.2,0,13.1c0.9,0,9.2,0,9.2,0l-10.3,38.2c0,0-12.6-50.6-12.8-51.3
			c-0.7,0-12.6,0-13.3,0c-0.2,0.7-13.8,51.4-13.8,51.4l-9.5-38.3c0,0,8.7,0,9.6,0c0-0.9,0-12.2,0-13.1c-0.9,0-37.5,0-38.4,0
			c0,0.9,0,12.2,0,13.1c0.9,0,8.5,0,8.5,0s14.7,58.8,14.9,59.5c0.7,0,19.9,0,20.6,0c0.2-0.7,9.9-37.5,9.9-37.5s9.2,36.7,9.4,37.5
			c0.7,0,19.9,0,20.6,0c0.2-0.7,15.7-59.5,15.7-59.5s7.6,0,8.4,0c0-0.9,0-12.2,0-13.1C-143.9,360.4-170.8,360.4-171.7,360.4z"/>
	</g>
</g>
</svg>
